<svg width="36" height="36" viewBox="0 0 36 36" fill="none" xmlns="http://www.w3.org/2000/svg">
<path d="M35 18C35 27.3891 27.3891 35 18 35C8.6109 35 1 27.3891 1 18C1 8.6109 8.6109 1 18 1C27.3891 1 35 8.6109 35 18Z" stroke="#E8D8AC" stroke-width="1.5"/>
<path d="M17.5033 13.4933C17.6458 13.3841 17.8202 13.325 17.9997 13.325C18.1792 13.325 18.3537 13.3841 18.4961 13.4933L22.3262 16.3918C22.4721 16.505 22.5797 16.6603 22.6345 16.8366C22.6892 17.013 22.6884 17.2019 22.6322 17.3778L21.1702 22.0664C21.1187 22.2404 21.0129 22.3933 20.8682 22.5028C20.7235 22.6123 20.5476 22.6727 20.3661 22.675H15.6333C15.4519 22.6727 15.276 22.6123 15.1313 22.5028C14.9866 22.3933 14.8807 22.2404 14.8292 22.0664L13.3672 17.3761C13.3114 17.2004 13.3109 17.0119 13.3656 16.8359C13.4203 16.6599 13.5277 16.5049 13.6732 16.3918L17.5033 13.4933Z" stroke="#E8D8AC" stroke-width="1.5"/>
<path d="M18.0001 12.9001V6.1001M23.1001 16.3001L29.9001 13.7501M21.4001 23.1001L24.8001 28.2001M14.6001 22.2501L11.2001 26.5001M12.9001 17.1501L6.1001 15.4501" stroke="#E8D8AC" stroke-width="1.5" stroke-linecap="round" stroke-linejoin="round"/>
<path d="M12.9 1.8501L18.0289 5.4575L23.1 1.8501M1 19.3601L6.4349 15.3464L3.6435 9.0241M30.699 29.6502L24.1472 28.4636L21.8522 35.0001M31.651 8.1333L29.5651 13.5631L35 17.5751M11.217 33.992L11.2867 26.784L4.4051 26.8588" stroke="#E8D8AC" stroke-width="1.5" stroke-linejoin="round"/>
</svg>
