<svg width="38" height="36" viewBox="0 0 38 36" fill="none" xmlns="http://www.w3.org/2000/svg">
<path d="M19.73 36C17.5335 35.7381 15.3525 35.1651 13.1869 34.2808C11.0214 33.3952 9.05936 32.1054 7.30076 30.4116C5.54074 28.7164 4.07923 26.5677 2.91621 23.9657C1.7532 21.3637 1.07595 18.2267 0.884456 14.5546L0.804199 12.8481L2.42834 12.9305C3.8983 13.0107 5.64423 13.3817 7.66613 14.0435C9.68944 14.7024 11.4065 15.5437 12.8173 16.5674C12.9962 13.9203 13.6509 11.1324 14.7815 8.20378C15.9121 5.27512 17.318 2.78857 18.9992 0.744141C20.6804 2.78857 22.0863 5.28849 23.2169 8.2439C24.3475 11.1993 25.0023 14.0013 25.1811 16.6497C26.5102 15.7064 28.159 14.8714 30.1274 14.1449C32.0958 13.4183 33.8833 13.0128 35.4898 12.9284L37.1942 12.8481L37.114 14.6349C37.0055 17.5494 36.5522 20.1655 35.7538 22.4831C34.9555 24.8007 33.8255 26.8339 32.364 28.5826C30.9025 30.3314 29.1235 31.8168 27.027 33.039C24.9304 34.2611 22.4981 35.2481 19.73 36ZM19.7046 33.8626C19.3174 28.0194 17.5842 23.6018 14.5048 20.6097C11.4255 17.6177 7.59714 15.7697 3.0197 15.0657C3.40691 21.085 5.19367 25.573 8.38 28.5298C11.5663 31.4866 15.3412 33.2642 19.7046 33.8626ZM18.9992 23.2139C19.4737 22.331 20.0827 21.4081 20.8261 20.445C21.5681 19.4819 22.332 18.6744 23.1176 18.0225C23.1021 15.8542 22.7332 13.5908 22.0109 11.2324C21.2886 8.87399 20.2847 6.61554 18.9992 4.45706C17.7137 6.61554 16.7098 8.87399 15.9875 11.2324C15.2652 13.5908 14.8963 15.8542 14.8808 18.0225C15.6664 18.6758 16.4261 19.4833 17.1596 20.445C17.8932 21.4081 18.5064 22.3303 18.9992 23.2118M21.8187 33.1572C23.4717 32.5982 25.0565 31.8597 26.5729 30.9417C28.0907 30.0251 29.4495 28.8508 30.6491 27.4189C31.8501 25.9883 32.835 24.2614 33.6038 22.2381C34.3712 20.2162 34.8288 17.8254 34.9766 15.0657C31.5594 15.5585 28.5202 16.7603 25.859 18.6709C23.1979 20.5816 21.2795 22.9245 20.1038 25.6997C20.5262 26.8261 20.8733 27.9631 21.145 29.1106C21.4168 30.2581 21.6413 31.607 21.8187 33.1572Z" fill="#E8D8AC"/>
</svg>
