<svg width="32" height="32" viewBox="0 0 32 32" fill="none" xmlns="http://www.w3.org/2000/svg">
<path d="M8.5 19C9.29565 19 10.0587 18.6839 10.6213 18.1213C11.1839 17.5587 11.5 16.7956 11.5 16C11.5 15.2044 11.1839 14.4413 10.6213 13.8787C10.0587 13.3161 9.29565 13 8.5 13C7.70435 13 6.94129 13.3161 6.37868 13.8787C5.81607 14.4413 5.5 15.2044 5.5 16C5.5 16.7956 5.81607 17.5587 6.37868 18.1213C6.94129 18.6839 7.70435 19 8.5 19ZM23.5 19C24.2956 19 25.0587 18.6839 25.6213 18.1213C26.1839 17.5587 26.5 16.7956 26.5 16C26.5 15.2044 26.1839 14.4413 25.6213 13.8787C25.0587 13.3161 24.2956 13 23.5 13C22.7044 13 21.9413 13.3161 21.3787 13.8787C20.8161 14.4413 20.5 15.2044 20.5 16C20.5 16.7956 20.8161 17.5587 21.3787 18.1213C21.9413 18.6839 22.7044 19 23.5 19ZM16 11.5C16.7956 11.5 17.5587 11.1839 18.1213 10.6213C18.6839 10.0587 19 9.29565 19 8.5C19 7.70435 18.6839 6.94129 18.1213 6.37868C17.5587 5.81607 16.7956 5.5 16 5.5C15.2044 5.5 14.4413 5.81607 13.8787 6.37868C13.3161 6.94129 13 7.70435 13 8.5C13 9.29565 13.3161 10.0587 13.8787 10.6213C14.4413 11.1839 15.2044 11.5 16 11.5ZM16 26.5C16.7956 26.5 17.5587 26.1839 18.1213 25.6213C18.6839 25.0587 19 24.2956 19 23.5C19 22.7044 18.6839 21.9413 18.1213 21.3787C17.5587 20.8161 16.7956 20.5 16 20.5C15.2044 20.5 14.4413 20.8161 13.8787 21.3787C13.3161 21.9413 13 22.7044 13 23.5C13 24.2956 13.3161 25.0587 13.8787 25.6213C14.4413 26.1839 15.2044 26.5 16 26.5Z" stroke="#E8D8AC" stroke-width="1.5" stroke-linecap="round" stroke-linejoin="round"/>
<path d="M1 16C1 24.2845 7.7155 31 16 31C24.2845 31 31 24.2845 31 16C31 7.7155 24.2845 1 16 1C7.7155 1 1 7.7155 1 16ZM1 16V31" stroke="#E8D8AC" stroke-width="1.5" stroke-linecap="round" stroke-linejoin="round"/>
</svg>
