<svg width="32" height="36" viewBox="0 0 32 36" fill="none" xmlns="http://www.w3.org/2000/svg">
<path d="M9.14344 14.6667C10.2868 16.9951 11.5068 19.175 11.2268 21.8567C10.7751 26.145 5.57681 27.7583 2.25018 29.7333C0.0718725 31.0282 0.886864 34.6665 3.56017 34.6665C6.80013 34.6665 9.69344 34.4082 12.6184 33.0332L18.3517 29.5049C19.1483 29.1299 20.1517 29.2899 21 29.6666" stroke="#E8D8AC" stroke-width="1.5" stroke-linecap="round" stroke-linejoin="round"/>
<path d="M22.6832 14.6667C21.5166 16.9951 20.2699 19.175 20.5582 21.8567C21.0182 26.145 26.3282 27.7583 29.7231 29.7333C31.9464 31.0282 31.1148 34.6665 28.3865 34.6665C25.0765 34.6665 22.1215 34.4082 19.1366 33.0332L13.28 29.5049C12.5966 29.1899 11.7633 29.2533 11 29.5049" stroke="#E8D8AC" stroke-width="1.5" stroke-linecap="round" stroke-linejoin="round"/>
<path d="M12.6667 4.66679C12.6667 5.55084 13.0179 6.39868 13.643 7.02379C14.2682 7.64891 15.116 8.00009 16 8.00009C16.8841 8.00009 17.7319 7.64891 18.357 7.02379C18.9822 6.39868 19.3333 5.55084 19.3333 4.66679C19.3333 3.78275 18.9822 2.93491 18.357 2.3098C17.7319 1.68468 16.8841 1.3335 16 1.3335C15.116 1.3335 14.2682 1.68468 13.643 2.3098C13.0179 2.93491 12.6667 3.78275 12.6667 4.66679Z" stroke="#E8D8AC" stroke-width="1.5"/>
<path d="M1 24.6667C5.07662 24.6667 6.90661 20.1584 7.48827 17.0501C7.6416 16.2368 7.88826 15.4285 8.42659 14.8018C9.36476 13.7125 10.5271 12.8387 11.8342 12.2401C13.1413 11.6415 14.5622 11.3322 15.9998 11.3335C19.0265 11.3335 21.7398 12.6785 23.5731 14.8018C24.1114 15.4285 24.3581 16.2368 24.5114 17.0484C25.0947 20.1584 26.9231 24.6667 30.9997 24.6667" stroke="#E8D8AC" stroke-width="1.5" stroke-linecap="round" stroke-linejoin="round"/>
</svg>
