<svg width="21" height="13" viewBox="0 0 21 13" fill="none" xmlns="http://www.w3.org/2000/svg">
<path d="M20.1084 11.3148C20.1084 10.8417 19.7249 10.4581 19.2518 10.4581H18.8125C18.8065 10.1513 18.6604 9.87936 18.4356 9.70244C18.5141 9.69964 18.5886 9.66646 18.6432 9.6099C18.6978 9.55333 18.7283 9.47778 18.7283 9.39916C18.7283 9.33956 18.7108 9.28127 18.6779 9.23155C18.645 9.18182 18.5983 9.14285 18.5435 9.11948C19.2399 8.77382 19.2598 7.85391 18.9342 6.85447L18.2956 4.77163H18.4245C18.5051 4.77162 18.5823 4.73961 18.6393 4.68265C18.6963 4.62569 18.7283 4.54844 18.7283 4.46788C18.7283 4.39911 18.7049 4.33239 18.662 4.27863C18.6192 4.22486 18.5593 4.18723 18.4923 4.17189C18.7251 3.97991 18.8735 3.68927 18.8735 3.36402C18.8735 2.98326 18.6696 2.65098 18.3656 2.46781H19.2518C19.725 2.46781 20.1084 2.08423 20.1084 1.61105C20.1084 1.13793 19.7249 0.754395 19.2518 0.754395H1.66264C1.18952 0.754395 0.805934 1.13798 0.805934 1.61105C0.805934 2.08423 1.18952 2.46781 1.66264 2.46781H2.54883C2.24487 2.65098 2.04093 2.98326 2.04093 3.36402C2.04093 3.68927 2.18932 3.97991 2.42216 4.17189C2.34939 4.18855 2.28531 4.23142 2.24215 4.29232C2.19898 4.35322 2.17976 4.42789 2.18815 4.50206C2.19654 4.57623 2.23195 4.64472 2.28762 4.69444C2.34329 4.74417 2.41533 4.77165 2.48998 4.77163H2.61875L1.98019 6.85447C1.65462 7.85406 1.6745 8.77387 2.37101 9.11953C2.31618 9.14287 2.26942 9.18183 2.23656 9.23155C2.2037 9.28127 2.1862 9.33956 2.18622 9.39916C2.18622 9.56334 2.31625 9.69656 2.47886 9.70244C2.2541 9.87936 2.10796 10.1514 2.10193 10.4581H1.66264C1.18952 10.4581 0.805934 10.8417 0.805934 11.3148L0.71582 12.0356H20.1985L20.1084 11.3148ZM6.0427 9.11948C5.98786 9.14282 5.9411 9.18178 5.90824 9.2315C5.87538 9.28122 5.85788 9.33951 5.85791 9.39911C5.85791 9.56328 5.98788 9.69651 6.15054 9.70239C5.92578 9.87931 5.77965 10.1513 5.77361 10.458H4.07331C4.06733 10.1513 3.9212 9.87931 3.69644 9.70239C3.77501 9.69959 3.84943 9.66641 3.90403 9.60984C3.95864 9.55328 3.98916 9.47773 3.98918 9.39911C3.98918 9.3395 3.97166 9.28121 3.9388 9.23148C3.90593 9.18175 3.85917 9.14279 3.80433 9.11943C4.5008 8.77377 4.52068 7.85385 4.19511 6.85442L3.5565 4.77158H3.68537C3.76593 4.77157 3.84319 4.73956 3.90016 4.6826C3.95713 4.62564 3.98915 4.54839 3.98918 4.46783C3.98914 4.39906 3.96577 4.33234 3.9229 4.27857C3.88002 4.22481 3.82018 4.18718 3.75314 4.17184C3.98592 3.97986 4.13437 3.68922 4.13437 3.36396C4.13437 2.98321 3.93043 2.65092 3.62647 2.46776H6.22051C5.91655 2.65092 5.71261 2.98321 5.71261 3.36396C5.71261 3.68922 5.861 3.97986 6.09378 4.17184C6.02102 4.1885 5.95694 4.23137 5.91378 4.29227C5.87061 4.35317 5.85139 4.42783 5.85978 4.50201C5.86817 4.57618 5.90358 4.64467 5.95925 4.69439C6.01492 4.74411 6.08696 4.77159 6.16161 4.77158H6.29038L5.65182 6.85442C5.32625 7.85401 5.34613 8.77382 6.0427 9.11948ZM9.71438 9.11948C9.65954 9.14282 9.61278 9.18178 9.57992 9.2315C9.54707 9.28122 9.52956 9.33951 9.52959 9.39911C9.52959 9.56328 9.65962 9.69651 9.82222 9.70239C9.59746 9.87931 9.45133 10.1513 9.4453 10.458H7.74499C7.73901 10.1513 7.59288 9.87931 7.36807 9.70239C7.44664 9.69959 7.52106 9.66641 7.57566 9.60984C7.63026 9.55328 7.66079 9.47773 7.66081 9.39911C7.66081 9.3395 7.64329 9.28121 7.61043 9.23148C7.57756 9.18175 7.5308 9.14279 7.47596 9.11943C8.17243 8.77377 8.19231 7.85385 7.86673 6.85442L7.22812 4.77158H7.357C7.43756 4.77157 7.51482 4.73956 7.57179 4.6826C7.62876 4.62564 7.66078 4.54839 7.66081 4.46783C7.66077 4.39906 7.6374 4.33234 7.59453 4.27857C7.55165 4.22481 7.4918 4.18718 7.42477 4.17184C7.65761 3.97986 7.80599 3.68922 7.80599 3.36396C7.80599 2.98321 7.60206 2.65092 7.2981 2.46776H9.89214C9.58818 2.65092 9.38424 2.98321 9.38424 3.36396C9.38424 3.68922 9.53263 3.97986 9.76547 4.17184C9.6927 4.1885 9.62862 4.23137 9.58546 4.29227C9.54229 4.35317 9.52307 4.42783 9.53146 4.50201C9.53985 4.57618 9.57526 4.64467 9.63093 4.69439C9.68661 4.74411 9.75864 4.77159 9.83329 4.77158H9.96206L9.3235 6.85442C8.99793 7.85401 9.01781 8.77382 9.71438 9.11948ZM13.3861 9.11948C13.3312 9.14282 13.2845 9.18178 13.2516 9.2315C13.2187 9.28122 13.2012 9.33951 13.2013 9.39911C13.2013 9.56328 13.3313 9.69651 13.4939 9.70239C13.2691 9.87931 13.123 10.1513 13.117 10.458H11.4167C11.4107 10.1513 11.2646 9.87931 11.0398 9.70239C11.1183 9.69959 11.1927 9.66641 11.2473 9.60984C11.3019 9.55328 11.3325 9.47773 11.3325 9.39911C11.3325 9.3395 11.315 9.28121 11.2821 9.23148C11.2492 9.18175 11.2025 9.14279 11.1476 9.11943C11.8441 8.77377 11.864 7.85385 11.5384 6.85442L10.8998 4.77158H11.0287C11.1092 4.77157 11.1865 4.73956 11.2435 4.6826C11.3004 4.62564 11.3325 4.54839 11.3325 4.46783C11.3325 4.39906 11.3091 4.33234 11.2662 4.27857C11.2233 4.22481 11.1635 4.18718 11.0965 4.17184C11.3293 3.97986 11.4777 3.68922 11.4777 3.36396C11.4777 2.98321 11.2737 2.65092 10.9698 2.46776H13.5638C13.2599 2.65092 13.0559 2.98321 13.0559 3.36396C13.0559 3.68922 13.2043 3.97986 13.4371 4.17184C13.3644 4.1885 13.3003 4.23137 13.2571 4.29227C13.214 4.35317 13.1948 4.42783 13.2031 4.50201C13.2115 4.57618 13.2469 4.64467 13.3026 4.69439C13.3583 4.74411 13.4303 4.77159 13.505 4.77158H13.6337L12.9952 6.85442C12.6696 7.85401 12.6895 8.77382 13.3861 9.11948ZM17.1102 9.11948C17.0554 9.14282 17.0086 9.18178 16.9757 9.2315C16.9429 9.28122 16.9254 9.33951 16.9254 9.39911C16.9254 9.56328 17.0554 9.69651 17.218 9.70239C16.9933 9.87931 16.8471 10.1513 16.8411 10.458H15.0884C15.0824 10.1513 14.9362 9.87931 14.7114 9.70239C14.79 9.69959 14.8644 9.66641 14.919 9.60984C14.9736 9.55328 15.0042 9.47773 15.0042 9.39911C15.0042 9.3395 14.9866 9.28122 14.9538 9.23149C14.9209 9.18177 14.8742 9.1428 14.8193 9.11943C15.5158 8.77377 15.5356 7.85385 15.2101 6.85442L14.5715 4.77158H14.7004C14.7809 4.77157 14.8582 4.73956 14.9152 4.6826C14.9721 4.62564 15.0041 4.54839 15.0042 4.46783C15.0041 4.39906 14.9808 4.33234 14.9379 4.27857C14.895 4.22481 14.8352 4.18718 14.7681 4.17184C15.0009 3.97986 15.1494 3.68922 15.1494 3.36396C15.1494 2.98321 14.9454 2.65092 14.6415 2.46776H17.288C16.984 2.65092 16.7801 2.98321 16.7801 3.36396C16.7801 3.68922 16.9284 3.97986 17.1613 4.17184C17.0885 4.1885 17.0244 4.23137 16.9813 4.29227C16.9381 4.35317 16.9189 4.42783 16.9273 4.50201C16.9357 4.57618 16.9711 4.64467 17.0267 4.69439C17.0824 4.74411 17.1545 4.77159 17.2291 4.77158H17.3579L16.7193 6.85442C16.3937 7.85401 16.4136 8.77382 17.1102 9.11948Z" fill="white"/>
</svg>
