<svg width="19" height="18" viewBox="0 0 19 18" fill="none" xmlns="http://www.w3.org/2000/svg">
<path fill-rule="evenodd" clip-rule="evenodd" d="M18.2588 17.0771H16.7945V14.1804C16.7945 14.0531 16.6884 13.9363 16.5504 13.9363C16.4125 13.9363 16.2958 14.0531 16.2958 14.1804V17.0771H15.309V15.2521C15.309 15.1141 15.2029 14.9974 15.0649 14.9974C14.927 14.9974 14.8209 15.1141 14.8209 15.2521V17.0771H13.8235V15.2521C13.8235 15.1141 13.7173 14.9974 13.5794 14.9974C13.4415 14.9974 13.3354 15.1141 13.3354 15.2521V17.0771H12.3379V14.1804C12.3379 14.0531 12.2318 13.9363 12.0939 13.9363C11.9559 13.9363 11.8498 14.0531 11.8498 14.1804V17.0771H10.8524V15.2521C10.8524 15.1141 10.7463 14.9974 10.6084 14.9974C10.4704 14.9974 10.3643 15.1141 10.3643 15.2521V17.0771H9.36691V14.1804C9.36691 14.0531 9.2608 13.9363 9.12286 13.9363C8.98492 13.9363 8.87881 14.0531 8.87881 14.1804V17.0771H7.892V15.2521C7.892 15.1141 7.77529 14.9974 7.63735 14.9974C7.4994 14.9974 7.3933 15.1141 7.3933 15.2521V17.0771H6.40649V14.1804C6.40649 14.0531 6.28977 13.9363 6.15183 13.9363C6.01389 13.9363 5.90778 14.0531 5.90778 14.1804V17.0771H4.92098V15.2521C4.92098 15.1141 4.80426 14.9974 4.66632 14.9974C4.53899 14.9974 4.42227 15.1141 4.42227 15.2521V17.0771H0.655426C0.517485 17.0771 0.411377 16.9604 0.411377 16.8225V13.6286H3.26569C3.40363 13.6286 3.50974 13.5119 3.50974 13.374C3.50974 13.236 3.40363 13.1299 3.26569 13.1299H0.411377V12.1431H2.21522C2.35316 12.1431 2.46988 12.037 2.46988 11.8991C2.46988 11.7611 2.35316 11.6444 2.21522 11.6444H0.411377V10.6576H2.21522C2.35316 10.6576 2.46988 10.5515 2.46988 10.4136C2.46988 10.2756 2.35316 10.1695 2.21522 10.1695H0.411377V9.1827H3.26569C3.40363 9.1827 3.50974 9.06598 3.50974 8.92804C3.50974 8.7901 3.40363 8.68399 3.26569 8.68399H0.411377V7.69718H2.21522C2.35316 7.69718 2.46988 7.59107 2.46988 7.45313C2.46988 7.31519 2.35316 7.19847 2.21522 7.19847H0.411377V6.21167H3.26569C3.40363 6.21167 3.50974 6.10556 3.50974 5.96762C3.50974 5.82968 3.40363 5.72357 3.26569 5.72357H0.411377V4.73676H2.21522C2.35316 4.73676 2.46988 4.62004 2.46988 4.4821C2.46988 4.34416 2.35316 4.23806 2.21522 4.23806H0.411377V3.25125H3.26569C3.40363 3.25125 3.50974 3.14514 3.50974 3.0072C3.50974 2.86926 3.40363 2.75254 3.26569 2.75254H0.411377V1.76573H2.21522C2.35316 1.76573 2.46988 1.65963 2.46988 1.52168C2.46988 1.38374 2.35316 1.27764 2.21522 1.27764H0.411377V0.333273C0.411377 0.195332 0.517485 0.0786133 0.655426 0.0786133H5.60007C5.73801 0.0786133 5.84412 0.195332 5.84412 0.333273V11.6444H18.2588C18.3861 11.6444 18.5028 11.7505 18.5028 11.8885V16.8225C18.5028 16.9604 18.3861 17.0771 18.2588 17.0771ZM2.66087 15.9524C2.19399 15.9524 1.81201 15.5704 1.81201 15.1035C1.81201 14.6367 2.19399 14.2547 2.66087 14.2547C3.12775 14.2547 3.50974 14.6367 3.50974 15.1035C3.50974 15.5704 3.12775 15.9524 2.66087 15.9524ZM2.66087 14.7534C2.46988 14.7534 2.31071 14.9125 2.31071 15.1035C2.31071 15.2945 2.46988 15.4537 2.66087 15.4537C2.86248 15.4537 3.02164 15.2945 3.02164 15.1035C3.02164 14.9125 2.86248 14.7534 2.66087 14.7534Z" fill="white"/>
</svg>
