<svg width="20" height="20" viewBox="0 0 20 20" fill="none" xmlns="http://www.w3.org/2000/svg">
<path d="M19.2771 4.79341C19.5432 4.79341 19.759 4.57765 19.759 4.31148V1.41992C19.759 1.15375 19.5432 0.937988 19.2771 0.937988H16.3855C16.1193 0.937988 15.9036 1.15375 15.9036 1.41992V2.38377H4.81929V1.41992C4.81929 1.15375 4.60353 0.937988 4.33736 0.937988H1.44579C1.17963 0.937988 0.963867 1.15375 0.963867 1.41992V4.31148C0.963867 4.57765 1.17963 4.79341 1.44579 4.79341H2.40965V15.8777H1.44579C1.17963 15.8777 0.963867 16.0935 0.963867 16.3596V19.2512C0.963867 19.5174 1.17963 19.7331 1.44579 19.7331H4.33736C4.60353 19.7331 4.81929 19.5174 4.81929 19.2512V18.2873H15.9036V19.2512C15.9036 19.5174 16.1194 19.7331 16.3856 19.7331H19.2771C19.5433 19.7331 19.759 19.5174 19.759 19.2512V16.3596C19.759 16.0935 19.5433 15.8777 19.2771 15.8777H18.3133V4.79341H19.2771ZM17.3494 15.8777H16.3855C16.1193 15.8777 15.9036 16.0935 15.9036 16.3596V17.3235H4.81929V16.3596C4.81929 16.0935 4.60353 15.8777 4.33736 15.8777H3.37351V4.79341H4.33736C4.60353 4.79341 4.81929 4.57765 4.81929 4.31148V3.34763H15.9036V4.31148C15.9036 4.57765 16.1194 4.79341 16.3856 4.79341H17.3494L17.3494 15.8777Z" fill="white"/>
</svg>
