<svg width="30" height="34" viewBox="0 0 30 34" fill="none" xmlns="http://www.w3.org/2000/svg">
<path fill-rule="evenodd" clip-rule="evenodd" d="M0 3.84011L2.18942 2.88706C10.3286 -0.655877 19.5743 -0.655877 27.7135 2.88706L29.903 3.84011V18.5674C29.903 26.8248 23.2089 33.5189 14.9515 33.5189C6.69399 33.5189 0 26.8248 0 18.5674V3.84011ZM4.73709 6.95466V13.3996C5.24228 13.2773 5.73837 13.1158 6.22075 12.916C7.44207 12.4101 8.55176 11.6686 9.48651 10.7339C10.4213 9.79911 11.1627 8.68941 11.6686 7.4681C11.9848 6.70484 12.2051 5.90729 12.3258 5.09375C9.7419 5.3439 7.18532 5.96422 4.73709 6.95466ZM4.73795 18.7022C5.24284 18.8244 5.73864 18.9859 6.22075 19.1856C7.44207 19.6915 8.55176 20.4329 9.48651 21.3677C10.4213 22.3024 11.1627 23.4121 11.6686 24.6334C12.1724 25.8497 12.4327 27.153 12.4349 28.4694C8.05229 27.359 4.79891 23.4155 4.73795 18.7022ZM14.8034 20.4535C14.237 19.5765 13.5779 18.7598 12.8361 18.0181C12.0944 17.2763 11.2777 16.6172 10.4007 16.0508C11.2777 15.4843 12.0944 14.8253 12.8361 14.0835C13.5779 13.3417 14.237 12.525 14.8034 11.648C15.3699 12.525 16.0289 13.3417 16.7707 14.0835C17.5125 14.8253 18.3292 15.4843 19.2062 16.0508C18.3292 16.6172 17.5125 17.2763 16.7707 18.0181C16.0289 18.7598 15.3699 19.5765 14.8034 20.4535ZM17.172 28.5397C21.7244 27.5305 25.1341 23.4837 25.1656 18.635C24.5581 18.7628 23.9624 18.9469 23.3861 19.1856C22.1648 19.6915 21.0551 20.4329 20.1203 21.3677C19.1856 22.3024 18.4441 23.4121 17.9382 24.6334C17.4323 25.8547 17.172 27.1637 17.172 28.4857V28.5397ZM23.3861 12.916C23.9624 13.1547 24.5583 13.3388 25.1658 13.4666V6.95466C22.6229 5.92588 19.963 5.29644 17.277 5.06636C17.3969 5.88941 17.6185 6.69628 17.9382 7.4681C18.4441 8.68941 19.1856 9.79911 20.1203 10.7339C21.0551 11.6686 22.1648 12.4101 23.3861 12.916Z" fill="#E8D8AC"/>
</svg>
