<svg width="18" height="18" viewBox="0 0 18 18" fill="none" xmlns="http://www.w3.org/2000/svg">
<path d="M17.5309 13.5507C16.7389 11.8865 15.3889 10.8013 13.4446 10.3129C13.1567 10.2404 12.8506 10.3129 12.6166 10.512L11.0145 11.8322C10.7084 12.0857 10.2584 12.1219 9.91646 11.9046C8.22426 10.8556 6.83815 9.46256 5.79415 7.76234C5.57796 7.41875 5.61399 6.96654 5.86621 6.65898L7.18026 5.04909C7.37825 4.81393 7.45031 4.50637 7.37825 4.21708C6.87418 2.24532 5.79415 0.888692 4.13798 0.0928903C3.86793 -0.0338296 3.56202 -0.0338296 3.29197 0.110993C2.46398 0.563202 1.65382 1.06954 0.897708 1.63037C0.609819 1.84742 0.465695 2.20911 0.519742 2.57099C1.05985 5.80887 2.80591 9.2093 5.63219 12.0493C8.45846 14.8893 11.8425 16.6257 15.0648 17.1865C15.4249 17.2408 15.7848 17.096 16.0008 16.8067C16.5631 16.0432 17.0685 15.2391 17.5129 14.4008C17.657 14.1295 17.657 13.8221 17.5309 13.5507Z" fill="#E8D8AC"/>
</svg>
